<svg width="374" height="366" viewBox="0 0 374 366" fill="none" xmlns="http://www.w3.org/2000/svg">
<g clip-path="url(#clip0_8_2)">
<path d="M329.199 314.518C321.553 322.394 314.318 327.472 308.603 331.484C241.412 378.65 161.908 364.901 145.011 361.544C120.06 356.586 71.8282 347.003 36.959 306.884C-15.7956 246.189 -7.58104 150.565 33.3397 87.4433C40.8243 75.8964 80.3624 11.8129 160.722 1.53622C209.356 -4.68352 266.046 7.86103 307.1 41.5109C393.276 112.145 387.142 254.84 329.199 314.518Z" fill="url(#paint0_linear_8_2)"/>
<path d="M268.727 208.322C268.727 208.322 267.633 163.33 288.815 151.289C309.996 139.247 350.271 131.718 351.78 67.1135C352.664 29.291 353.621 12.7547 354.262 5.54397C354.512 2.73072 351.957 0.460176 349.121 0.982921C329.06 4.68071 263.891 19.8988 250.227 63.4157C234.029 115.007 268.726 208.322 268.726 208.322H268.727Z" fill="#91B3FA"/>
<path d="M333.607 18.9571C311.586 38.1709 286.123 72.176 272.551 106.181C270.809 111.785 265.713 123.703 263.5 144.879C261.523 162.539 262.506 181.201 264.903 193.554C265.054 194.335 265.825 194.848 266.623 194.699C267.996 194.444 267.812 193.001 267.8 193.046C265.063 171.94 266.199 145.67 272.47 121.968C280.482 92.8636 298.354 64.646 316.839 40.7142L318.741 38.3572C333.063 20.363 336.077 20.2313 334.738 18.977C334.421 18.6804 333.926 18.6777 333.605 18.9571H333.607Z" fill="#BDD0FB"/>
<path d="M242.258 290.848C239.392 292.224 269.388 255.319 278.784 197.359C283.212 170.048 283.269 135.827 299.173 122.64C312.408 111.665 357.446 118.594 372.182 121.228C374.023 121.556 374.643 123.832 373.21 125.01C366.143 130.817 351.026 144.513 347.087 158.316C341.895 176.51 324.215 188.082 308.388 191.213C292.56 194.344 283.755 197.383 276.045 222.148C268.334 246.912 250.401 286.943 242.258 290.848Z" fill="#BDD0FB"/>
<path d="M351.457 128.914C332.655 129.685 312.473 138.075 302.232 153.815L301.265 155.316C299.032 158.839 286.379 183.873 279.351 204.626C279.264 204.884 279.407 205.163 279.672 205.25C280.121 205.395 280.346 204.912 280.303 204.955C285.199 193.231 292.232 178.368 297.832 167.252C303.839 155.122 308.041 146.909 321.742 139.041C336.991 130.568 351.557 129.695 351.514 129.705C351.737 129.682 351.899 129.488 351.875 129.271C351.854 129.062 351.667 128.908 351.457 128.916V128.914Z" fill="url(#paint1_linear_8_2)"/>
<path d="M72.0947 87.3316C72.0947 75.7102 81.7233 66.2902 93.602 66.2902H276.501C286.592 66.2902 294.912 74.0263 295.426 83.8853L308.926 343.312C309.327 351.027 303.119 357.535 295.226 357.675L85.5995 361.402C78.1816 361.533 72.0947 355.686 72.0947 348.427V87.3316Z" fill="url(#paint2_linear_8_2)"/>
<path d="M116.236 356.992H116.23L92.774 356.696C84.9306 356.596 78.55 350.272 78.55 342.599V307.951C78.55 307.68 78.7744 307.462 79.0504 307.462C79.3264 307.462 79.5507 307.681 79.5507 307.951V342.599C79.5507 349.739 85.488 355.624 92.7863 355.715L116.242 356.012C116.518 356.015 116.739 356.238 116.737 356.508C116.733 356.777 116.51 356.992 116.236 356.992Z" fill="#91B3FA"/>
<path d="M79.0504 297.709C78.7744 297.709 78.55 297.49 78.55 297.22V291.609C78.55 291.338 78.7744 291.12 79.0504 291.12C79.3264 291.12 79.5507 291.339 79.5507 291.609V297.22C79.5507 297.491 79.3264 297.709 79.0504 297.709Z" fill="url(#paint3_linear_8_2)"/>
<path d="M87.0787 70.2833C87.057 66.5655 90.3988 63.6871 94.1649 64.1872C119.142 67.5006 205.029 77.7493 276.041 72.4168C279.279 72.1734 282.089 74.5743 282.262 77.7467L296.418 338.33C296.612 341.903 293.824 344.958 290.172 345.17C260.306 346.899 137.309 353.583 93.4375 349.089C90.7673 348.815 88.7401 346.616 88.7252 343.989L87.0801 70.2833H87.0787Z" fill="url(#paint4_linear_8_2)"/>
<path d="M90.0209 76.8129C89.9991 73.2348 93.2159 70.4655 96.8392 70.947C120.875 74.1353 203.529 83.9983 271.867 78.8666C274.983 78.6325 277.687 80.943 277.853 83.9957L291.476 334.767C291.662 338.205 288.978 341.146 285.465 341.35C256.724 343.014 138.358 349.446 96.139 345.121C93.5694 344.857 91.6184 342.741 91.6035 340.214L90.0195 76.8142L90.0209 76.8129Z" fill="url(#paint5_linear_8_2)"/>
<path opacity="0.78" d="M112.272 96.1465L114.825 149.909C114.909 151.697 116.386 153.119 118.216 153.17C128.394 153.45 160.106 154.207 178.013 153.293C180.039 153.19 181.641 151.587 181.709 149.603C182.05 139.521 182.798 110.175 180.448 97.9076C180.069 95.9257 178.327 94.4745 176.269 94.404L116.114 92.3463C113.945 92.2718 112.173 94.0249 112.273 96.1465H112.272Z" fill="white"/>
<g opacity="0.6">
<path d="M262.869 100.827C263.993 100.827 264.889 100.016 264.861 99.0236C264.831 98.0313 263.887 97.2039 262.763 97.184L196.603 96.0307C195.478 96.0108 194.864 96.8448 195.238 97.8823L195.618 98.9398C195.992 99.9773 197.219 100.827 198.343 100.827H262.872H262.869Z" fill="white"/>
</g>
<g opacity="0.6">
<path d="M196.6 106.053C195.476 106.033 194.861 106.867 195.235 107.905L195.616 108.962C195.99 110 197.216 110.85 198.34 110.85H262.869C263.993 110.85 264.889 110.038 264.861 109.046C264.831 108.054 263.887 107.227 262.763 107.207L196.603 106.053H196.6Z" fill="white"/>
</g>
<g opacity="0.6">
<path d="M196.6 116.221C195.476 116.201 194.861 117.035 195.235 118.072L195.616 119.13C195.99 120.167 197.216 121.017 198.34 121.017H262.869C263.993 121.017 264.889 120.206 264.861 119.214C264.831 118.221 263.887 117.394 262.763 117.374L196.603 116.221H196.6Z" fill="white"/>
</g>
<g opacity="0.6">
<path d="M269.275 170.054C270.4 170.054 271.266 169.243 271.199 168.251C271.132 167.258 270.158 166.44 269.032 166.431L114.298 165.238C113.173 165.229 112.827 165.927 113.527 166.788L114.912 168.489C115.612 169.349 117.107 170.054 118.231 170.054H269.275Z" fill="white"/>
</g>
<g opacity="0.6">
<path d="M114.298 175.262C113.173 175.253 112.827 175.951 113.527 176.812L114.912 178.513C115.612 179.373 117.107 180.078 118.231 180.078H269.275C270.4 180.078 271.266 179.267 271.199 178.275C271.132 177.282 270.158 176.464 269.032 176.455L114.298 175.262Z" fill="white"/>
</g>
<path d="M113.699 191.996C117.415 191.718 124.374 191.588 128.203 191.536C129.827 191.514 131.25 192.59 131.631 194.134C132.371 197.132 133.39 202.338 133.261 207.854C133.223 209.506 131.839 210.824 130.15 210.807L116.016 210.658C114.279 210.64 112.835 209.34 112.673 207.647L111.43 194.638C111.301 193.292 112.322 192.1 113.699 191.998V191.996Z" fill="url(#paint6_linear_8_2)"/>
<g opacity="0.6">
<path d="M139.74 197.334C138.615 197.288 137.833 198.142 138.001 199.23L138.372 201.649C138.539 202.737 139.595 203.627 140.721 203.627H175.245C176.369 203.627 177.279 202.727 177.264 201.627L177.255 200.867C177.241 199.767 176.31 198.829 175.185 198.783L139.74 197.333V197.334Z" fill="white"/>
</g>
<path d="M190.702 191.996C194.418 191.718 201.376 191.588 205.206 191.536C206.83 191.514 208.253 192.59 208.634 194.134C209.373 197.132 210.393 202.338 210.264 207.854C210.226 209.506 208.842 210.824 207.153 210.807L193.019 210.658C191.281 210.64 189.837 209.34 189.676 207.647L188.433 194.638C188.304 193.292 189.325 192.1 190.702 191.998V191.996Z" fill="url(#paint7_linear_8_2)"/>
<g opacity="0.6">
<path d="M216.742 197.334C215.618 197.288 214.836 198.142 215.003 199.23L215.375 201.649C215.542 202.737 216.598 203.627 217.724 203.627H252.248C253.372 203.627 254.282 202.727 254.267 201.627L254.257 200.867C254.244 199.767 253.312 198.829 252.188 198.783L216.742 197.333V197.334Z" fill="white"/>
</g>
<g opacity="0.6">
<path d="M109.366 236.502C109.85 237.902 111.52 238.875 113.419 238.861L268.246 237.854C269.997 237.842 271.399 236.741 271.361 235.406C271.324 234.107 269.937 233.068 268.234 233.062L113.403 232.523C110.67 232.514 108.669 234.484 109.366 236.499V236.502Z" fill="white"/>
</g>
<g opacity="0.6">
<path d="M109.366 263.851C109.85 265.251 111.52 266.224 113.419 266.21L268.246 265.203C269.997 265.191 271.399 264.09 271.361 262.755C271.324 261.456 269.937 260.417 268.234 260.411L113.403 259.872C110.67 259.863 108.669 261.833 109.366 263.848V263.851Z" fill="white"/>
</g>
<g opacity="0.6">
<path d="M109.366 291.198C109.85 292.599 111.52 293.571 113.419 293.558L268.246 292.551C269.997 292.539 271.399 291.438 271.361 290.102C271.324 288.804 269.937 287.765 268.234 287.758L113.403 287.22C110.67 287.21 108.669 289.18 109.366 291.196V291.198Z" fill="white"/>
</g>
<g opacity="0.6">
<path d="M109.366 318.547C109.85 319.948 111.52 320.92 113.419 320.907L268.246 319.9C269.997 319.888 271.399 318.787 271.361 317.451C271.324 316.153 269.937 315.114 268.234 315.107L113.403 314.569C110.67 314.559 108.669 316.529 109.366 318.545V318.547Z" fill="white"/>
</g>
<path d="M196.395 30.9178C189.789 26.4206 184.044 26.5097 180 27.6776C176.311 28.743 173.919 32.2267 174.27 35.9737L176.015 54.5969L196.767 56.3993C196.767 56.3993 209.352 39.7366 196.395 30.9178ZM187.269 45.9417C184.411 45.9417 182.095 43.6752 182.095 40.8792C182.095 38.0833 184.411 35.8167 187.269 35.8167C190.127 35.8167 192.444 38.0833 192.444 40.8792C192.444 43.6752 190.127 45.9417 187.269 45.9417Z" fill="url(#paint8_linear_8_2)"/>
<path d="M178.088 46.7638C177.832 46.7638 177.613 46.5722 177.59 46.3182L177.313 43.3519C177.287 43.0819 177.491 42.8438 177.766 42.8199C178.047 42.7946 178.285 42.9941 178.31 43.2628L178.587 46.229C178.613 46.4991 178.409 46.7372 178.134 46.7611C178.118 46.7624 178.103 46.7624 178.088 46.7624V46.7638ZM177.544 40.951C177.289 40.951 177.07 40.7595 177.047 40.5054L176.836 38.2535C176.501 34.6834 178.798 31.3607 182.295 30.3498C184.772 29.6342 187.324 29.5318 189.88 30.0452C190.15 30.0998 190.326 30.3591 190.27 30.6238C190.214 30.8885 189.952 31.0575 189.678 31.0056C187.284 30.5267 184.895 30.6212 182.579 31.2902C179.539 32.1681 177.543 35.0599 177.834 38.1644L178.044 40.4163C178.07 40.6863 177.866 40.9244 177.592 40.9484C177.575 40.9497 177.56 40.9497 177.545 40.9497L177.544 40.951Z" fill="#91B3FA"/>
<path d="M147.692 66.6321V57.2692C147.692 54.037 150.43 51.4485 153.731 51.5589L219.713 53.771C222.642 53.8694 225.013 56.1306 225.188 58.9918L225.74 67.9888L147.69 66.6334L147.692 66.6321Z" fill="url(#paint9_linear_8_2)"/>
<path d="M172.295 55.0877H169.457C169.181 55.0877 168.957 54.8683 168.957 54.5983C168.957 54.3282 169.181 54.1088 169.457 54.1088H172.295C172.571 54.1088 172.795 54.3282 172.795 54.5983C172.795 54.8683 172.571 55.0877 172.295 55.0877Z" fill="#91B3FA"/>
<path d="M151.263 63.6924C150.987 63.6924 150.763 63.4729 150.763 63.2029V59.4147C150.763 56.4884 153.197 54.1074 156.188 54.1074H166.62C166.896 54.1074 167.12 54.3269 167.12 54.5969C167.12 54.8669 166.896 55.0864 166.62 55.0864H156.188C153.749 55.0864 151.764 57.0284 151.764 59.4134V63.2016C151.764 63.4729 151.539 63.6911 151.263 63.6911V63.6924Z" fill="#91B3FA"/>
<path d="M120.807 68.9971C120.966 65.7542 123.7 63.2057 127.018 63.2057L242.4 63.203C246.55 63.203 250.096 66.124 250.804 70.1237L250.902 70.6757C251.677 75.0559 248.229 79.0636 243.685 79.0636H125.309C122.59 79.0636 120.423 76.8383 120.553 74.1806L120.807 68.9971Z" fill="url(#paint10_linear_8_2)"/>
<path d="M170.89 324.726H5.0155V362.547H170.89V324.726Z" fill="url(#paint11_linear_8_2)"/>
<path d="M1.56213 345.602H173.812V359.438C173.812 359.818 173.497 360.126 173.109 360.126H2.61445C2.03391 360.126 1.56349 359.665 1.56349 359.098V345.604L1.56213 345.602Z" fill="url(#paint12_linear_8_2)"/>
<path d="M1.56213 329.113H173.812V342.616C173.812 343.179 173.344 343.636 172.769 343.636H2.86326C2.1454 343.636 1.56213 343.066 1.56213 342.363V329.113Z" fill="url(#paint13_linear_8_2)"/>
<path d="M2.63621 323.667H172.724C173.325 323.667 173.812 324.143 173.812 324.731V329.113H1.56213V324.716C1.56213 324.137 2.04343 323.666 2.63621 323.666V323.667Z" fill="url(#paint14_linear_8_2)"/>
<path d="M329.598 357.94C332.75 351.596 330.782 344.301 325.201 341.646C319.619 338.991 312.539 341.982 309.386 348.325C306.234 354.669 308.202 361.964 313.784 364.619C319.365 367.274 326.445 364.283 329.598 357.94Z" fill="url(#paint15_linear_8_2)"/>
<path d="M307.485 340.312L301.77 351.813C301.564 352.225 301.74 352.723 302.162 352.924L309.316 356.327C309.738 356.528 310.247 356.356 310.452 355.943L316.168 344.442C316.373 344.029 316.197 343.532 315.775 343.331L308.621 339.928C308.199 339.727 307.69 339.899 307.485 340.312Z" fill="url(#paint16_linear_8_2)"/>
<path d="M308.847 338.916C307.822 344.065 305.485 348.663 301.932 352.752C300.013 354.961 296.933 355.951 293.87 355.35C264.589 349.598 203.221 312.49 143.625 280.074C139.676 277.926 136.946 275.489 138.807 271.744L142.917 263.474C144.766 259.752 149.193 261.847 153.348 263.518C216.387 288.857 283.25 310.944 306.204 331.38C308.407 333.341 309.388 336.198 308.847 338.916Z" fill="url(#paint17_linear_8_2)"/>
<path d="M152.476 255.024L138.523 283.096C138.325 283.493 137.837 283.658 137.432 283.465L130.071 279.962C129.666 279.77 129.498 279.292 129.695 278.896L143.648 250.823C143.845 250.427 144.333 250.262 144.739 250.455L152.099 253.957C152.505 254.15 152.673 254.627 152.476 255.024Z" fill="url(#paint18_linear_8_2)"/>
<path d="M90.4532 226.999L76.4997 255.072C76.3026 255.468 75.8145 255.633 75.4094 255.44L68.0486 251.938C67.6434 251.745 67.4748 251.267 67.672 250.871L81.6254 222.798C81.8225 222.402 82.3106 222.237 82.7158 222.43L90.0766 225.932C90.4817 226.125 90.6503 226.603 90.4532 226.999Z" fill="url(#paint19_linear_8_2)"/>
<path d="M97.1696 198.371L53.0832 287.079L114.512 316.301L158.599 227.593L97.1696 198.371Z" fill="url(#paint20_linear_8_2)"/>
<path d="M55.4087 282.397L49.8643 293.553L111.293 322.775L116.838 311.619L55.4087 282.397Z" fill="url(#paint21_linear_8_2)"/>
<path d="M113.793 317.753L111.037 323.297C110.194 324.992 108.222 325.843 106.374 325.306C87.2255 319.742 68.693 311.073 50.8621 298.865C49.3012 297.796 48.7642 295.773 49.5976 294.097L52.3644 288.529L113.792 317.753H113.793Z" fill="url(#paint22_linear_8_2)"/>
<path d="M119.996 309.392L117.698 314.014C117.493 314.426 116.984 314.599 116.563 314.399L52.2502 283.801C51.8287 283.6 51.652 283.103 51.8573 282.691L54.155 278.068C54.3603 277.656 54.8688 277.483 55.2902 277.684L119.603 308.281C120.024 308.482 120.201 308.98 119.996 309.392Z" fill="url(#paint23_linear_8_2)"/>
<path d="M119.628 310.131L118.066 313.275C117.88 313.648 117.419 313.804 117.037 313.623L52.5806 282.958C52.1985 282.776 52.0395 282.325 52.2244 281.951L53.7865 278.808C53.9728 278.434 54.4337 278.279 54.8157 278.459L119.272 309.124C119.654 309.307 119.813 309.758 119.628 310.131Z" fill="url(#paint24_linear_8_2)"/>
<path d="M158.959 226.9L164.503 215.744L103.074 186.522L97.5297 197.678L158.959 226.9Z" fill="url(#paint25_linear_8_2)"/>
<path d="M161.997 220.771L164.753 215.227C165.596 213.533 165.06 211.488 163.489 210.399C147.191 199.099 128.777 190.191 107.952 184.009C106.129 183.468 104.171 184.304 103.338 185.982L100.571 191.549L161.999 220.774L161.997 220.771Z" fill="url(#paint26_linear_8_2)"/>
<path d="M159.105 230.706L161.403 226.084C161.608 225.672 161.433 225.174 161.01 224.973L96.6977 194.376C96.2762 194.175 95.7677 194.347 95.5624 194.76L93.2647 199.383C93.0594 199.795 93.2348 200.292 93.6577 200.493L157.97 231.091C158.392 231.291 158.9 231.12 159.105 230.706Z" fill="url(#paint27_linear_8_2)"/>
<path d="M159.472 229.968L161.035 226.823C161.221 226.45 161.062 225.999 160.678 225.817L96.2219 195.152C95.8398 194.969 95.3789 195.125 95.1927 195.5L93.6305 198.643C93.4443 199.017 93.6033 199.468 93.9867 199.65L158.443 230.315C158.825 230.497 159.286 230.342 159.472 229.967V229.968Z" fill="url(#paint28_linear_8_2)"/>
</g>
<defs>
<linearGradient id="paint0_linear_8_2" x1="420.776" y1="474.023" x2="96.6966" y2="62.6279" gradientUnits="userSpaceOnUse">
<stop stop-color="#DAE3FE"/>
<stop offset="1" stop-color="#E9EFFD"/>
</linearGradient>
<linearGradient id="paint1_linear_8_2" x1="279.325" y1="167.095" x2="351.878" y2="167.095" gradientUnits="userSpaceOnUse">
<stop stop-color="#DAE3FE"/>
<stop offset="1" stop-color="#E9EFFD"/>
</linearGradient>
<linearGradient id="paint2_linear_8_2" x1="190.441" y1="343.977" x2="174.34" y2="-143.192" gradientUnits="userSpaceOnUse">
<stop stop-color="#09005D"/>
<stop offset="1" stop-color="#1A0F91"/>
</linearGradient>
<linearGradient id="paint3_linear_8_2" x1="47.8249" y1="275.006" x2="236.051" y2="397.233" gradientUnits="userSpaceOnUse">
<stop stop-color="#A737D5"/>
<stop offset="1" stop-color="#EF497A"/>
</linearGradient>
<linearGradient id="paint4_linear_8_2" x1="479.863" y1="-26.2397" x2="347.685" y2="84.3829" gradientUnits="userSpaceOnUse">
<stop stop-color="#E1473D"/>
<stop offset="1" stop-color="#E9605A"/>
</linearGradient>
<linearGradient id="paint5_linear_8_2" x1="286.628" y1="136.686" x2="494.648" y2="-20.5107" gradientUnits="userSpaceOnUse">
<stop stop-color="#FEBBBA"/>
<stop offset="1" stop-color="#FF928E"/>
</linearGradient>
<linearGradient id="paint6_linear_8_2" x1="91.8156" y1="177.359" x2="264.864" y2="318.75" gradientUnits="userSpaceOnUse">
<stop stop-color="#A737D5"/>
<stop offset="1" stop-color="#EF497A"/>
</linearGradient>
<linearGradient id="paint7_linear_8_2" x1="207.701" y1="195.469" x2="411.455" y2="48.1392" gradientUnits="userSpaceOnUse">
<stop stop-color="#FF928E"/>
<stop offset="1" stop-color="#FE7062"/>
</linearGradient>
<linearGradient id="paint8_linear_8_2" x1="216.801" y1="4.20858" x2="134.995" y2="114.205" gradientUnits="userSpaceOnUse">
<stop stop-color="#09005D"/>
<stop offset="1" stop-color="#1A0F91"/>
</linearGradient>
<linearGradient id="paint9_linear_8_2" x1="226.03" y1="11.0708" x2="144.222" y2="121.068" gradientUnits="userSpaceOnUse">
<stop stop-color="#09005D"/>
<stop offset="1" stop-color="#1A0F91"/>
</linearGradient>
<linearGradient id="paint10_linear_8_2" x1="215.428" y1="17.6936" x2="159.278" y2="123.079" gradientUnits="userSpaceOnUse">
<stop stop-color="#FF928E"/>
<stop offset="1" stop-color="#FE7062"/>
</linearGradient>
<linearGradient id="paint11_linear_8_2" x1="123.842" y1="294.111" x2="103.015" y2="324.137" gradientUnits="userSpaceOnUse">
<stop stop-color="#09005D"/>
<stop offset="1" stop-color="#1A0F91"/>
</linearGradient>
<linearGradient id="paint12_linear_8_2" x1="183.515" y1="224.254" x2="39.9643" y2="425.177" gradientUnits="userSpaceOnUse">
<stop stop-color="#4F52FF"/>
<stop offset="1" stop-color="#4042E2"/>
</linearGradient>
<linearGradient id="paint13_linear_8_2" x1="88.5878" y1="317.592" x2="92.5013" y2="234.469" gradientUnits="userSpaceOnUse">
<stop stop-color="#4F52FF"/>
<stop offset="1" stop-color="#4042E2"/>
</linearGradient>
<linearGradient id="paint14_linear_8_2" x1="219.548" y1="196.139" x2="182.593" y2="234.369" gradientUnits="userSpaceOnUse">
<stop stop-color="#09005D"/>
<stop offset="1" stop-color="#1A0F91"/>
</linearGradient>
<linearGradient id="paint15_linear_8_2" x1="395.803" y1="371.575" x2="430.481" y2="380.321" gradientUnits="userSpaceOnUse">
<stop stop-color="#4F52FF"/>
<stop offset="1" stop-color="#4042E2"/>
</linearGradient>
<linearGradient id="paint16_linear_8_2" x1="234.74" y1="302.68" x2="284.241" y2="334.362" gradientUnits="userSpaceOnUse">
<stop stop-color="#4F52FF"/>
<stop offset="1" stop-color="#4042E2"/>
</linearGradient>
<linearGradient id="paint17_linear_8_2" x1="380.503" y1="375.06" x2="132.167" y2="265.861" gradientUnits="userSpaceOnUse">
<stop stop-color="#4F52FF"/>
<stop offset="1" stop-color="#4042E2"/>
</linearGradient>
<linearGradient id="paint18_linear_8_2" x1="105.69" y1="242.164" x2="143.164" y2="269.591" gradientUnits="userSpaceOnUse">
<stop stop-color="#09005D"/>
<stop offset="1" stop-color="#1A0F91"/>
</linearGradient>
<linearGradient id="paint19_linear_8_2" x1="205.017" y1="289.567" x2="83.0854" y2="238.359" gradientUnits="userSpaceOnUse">
<stop stop-color="#4F52FF"/>
<stop offset="1" stop-color="#4042E2"/>
</linearGradient>
<linearGradient id="paint20_linear_8_2" x1="75.253" y1="242.56" x2="132.321" y2="271.381" gradientUnits="userSpaceOnUse">
<stop stop-color="#4F52FF"/>
<stop offset="1" stop-color="#4042E2"/>
</linearGradient>
<linearGradient id="paint21_linear_8_2" x1="36.4911" y1="335.588" x2="69.8459" y2="311.042" gradientUnits="userSpaceOnUse">
<stop stop-color="#09005D"/>
<stop offset="1" stop-color="#1A0F91"/>
</linearGradient>
<linearGradient id="paint22_linear_8_2" x1="56.0067" y1="373.87" x2="75.1216" y2="321.031" gradientUnits="userSpaceOnUse">
<stop stop-color="#4F52FF"/>
<stop offset="1" stop-color="#4042E2"/>
</linearGradient>
<linearGradient id="paint23_linear_8_2" x1="40.9575" y1="184.055" x2="60.6371" y2="235.256" gradientUnits="userSpaceOnUse">
<stop stop-color="#09005D"/>
<stop offset="1" stop-color="#1A0F91"/>
</linearGradient>
<linearGradient id="paint24_linear_8_2" x1="54.1359" y1="384.486" x2="82.7544" y2="301.299" gradientUnits="userSpaceOnUse">
<stop stop-color="#4F52FF"/>
<stop offset="1" stop-color="#4042E2"/>
</linearGradient>
<linearGradient id="paint25_linear_8_2" x1="1579.61" y1="-53.4431" x2="1518.19" y2="-41.9187" gradientUnits="userSpaceOnUse">
<stop stop-color="#09005D"/>
<stop offset="1" stop-color="#1A0F91"/>
</linearGradient>
<linearGradient id="paint26_linear_8_2" x1="185.971" y1="118.722" x2="159.294" y2="162.976" gradientUnits="userSpaceOnUse">
<stop stop-color="#4F52FF"/>
<stop offset="1" stop-color="#4042E2"/>
</linearGradient>
<linearGradient id="paint27_linear_8_2" x1="116.455" y1="131.998" x2="122.943" y2="182.307" gradientUnits="userSpaceOnUse">
<stop stop-color="#09005D"/>
<stop offset="1" stop-color="#1A0F91"/>
</linearGradient>
<linearGradient id="paint28_linear_8_2" x1="191.064" y1="124.464" x2="150.761" y2="182.784" gradientUnits="userSpaceOnUse">
<stop stop-color="#4F52FF"/>
<stop offset="1" stop-color="#4042E2"/>
</linearGradient>
<clipPath id="clip0_8_2">
<rect width="374" height="366" fill="white"/>
</clipPath>
</defs>
</svg>
